PathFileType	4	(X/Y/Z)	D:\TRACE\spotREDO_2-26-24\spot_justArm_Motion_3_1-v60.trc
DataRate	CameraRate	NumFrames	NumMarkers	Units	OrigDataRate	OrigDataStartFrame	OrigNumFrames
100.00	100.00	      24	9	mm	100.00	1	      7000
Frame#	Time	front left toe			Front right toe			aft left toe			aft right toe			Arm			FL body			FR body			AL Body			AR Body			
		X1	Y1	Z1	X2	Y2	Z2	X3	Y3	Z3	X4	Y4	Z4	X5	Y5	Z5	X6	Y6	Z6	X7	Y7	Z7	X8	Y8	Z8	X9	Y9	Z9	

1	0.000	-254.73544	51.27682	-143.01482	167.84532	53.33672	-143.28764	-233.28755	-58.01297	476.96158	180.35817	-48.00676	439.79980	-35.67350	948.86102	-300.86478	-126.30866	602.40155	-250.03191	30.17978	606.77924	-256.63403	-95.06763	457.33566	620.87915	53.48154	457.34549	616.88403	
2	0.010	-254.69936	51.23230	-142.97542	167.84370	53.27742	-143.26868	-233.31232	-58.03668	476.99268	180.37764	-48.00463	439.78400	-35.51915	949.20251	-301.26559	-126.26435	602.43146	-249.92296	30.16455	606.82422	-256.59271	-95.02088	457.30045	620.95923	53.53343	457.34521	616.92444	
3	0.020	-254.68570	51.19149	-142.98410	167.81056	53.23703	-143.29480	-233.26849	-58.08193	477.03516	180.25020	-48.02295	439.77768	-35.45087	949.86774	-301.89221	-126.28327	602.41479	-249.90269	30.18990	606.77722	-256.49820	-95.05521	457.29303	621.04401	53.51524	457.34000	617.01337	
4	0.030	-254.67833	51.16950	-142.98549	167.78313	53.30777	-143.33955	-233.21884	-58.02248	477.01617	180.37306	-47.96352	439.77289	-35.61180	950.45129	-302.39352	-126.29817	602.41730	-249.84190	30.21796	606.79370	-256.41602	-94.91206	457.32675	621.14166	53.56075	457.37036	617.07495	
5	0.040	-254.73187	51.24620	-142.98438	167.94641	53.54224	-143.15512	-233.27113	-57.98172	476.98389	180.36696	-47.94993	439.81998	-35.62279	950.92902	-302.88187	-126.25446	602.41919	-249.81113	30.24213	606.81458	-256.31857	-94.83427	457.37088	621.23779	53.62542	457.39389	617.11176	
6	0.050	-254.71945	51.25953	-142.99860	167.97043	53.31997	-143.20096	-233.28369	-58.04643	477.03156	180.34909	-47.97138	439.78271	-35.62199	951.42078	-303.41379	-126.25554	602.46088	-249.74915	30.26933	606.78577	-256.24576	-94.81206	457.39130	621.34595	53.49789	457.39133	617.19220	
7	0.060	-254.70197	51.22449	-142.97235	167.94370	53.31534	-143.19974	-233.25403	-58.00996	476.97760	180.37424	-48.00092	439.83527	-35.40717	951.95728	-304.04947	-126.21310	602.42053	-249.61914	30.28591	606.80139	-256.14886	-94.78374	457.36697	621.41083	53.54219	457.39661	617.28918	
8	0.070	-254.64638	51.16403	-142.95114	167.91873	53.26973	-143.24541	-233.27773	-58.05603	477.04712	180.33423	-47.99279	439.83087	-35.61157	952.50586	-304.74802	-126.14671	602.41541	-249.56046	30.32488	606.79541	-256.04813	-94.76261	457.39011	621.44977	53.51252	457.41949	617.37421	
9	0.080	-254.64790	51.14929	-142.90158	167.84187	53.21893	-143.32109	-233.29570	-58.05237	477.03177	180.35648	-47.99423	439.85663	-35.73285	952.93414	-305.20096	-126.18336	602.45300	-249.54756	30.34119	606.82202	-255.92966	-94.78505	457.38998	621.49097	53.53729	457.41345	617.43463	
10	0.090	-254.65645	51.20394	-142.94226	167.79083	53.49306	-143.16617	-233.26437	-58.03050	477.01480	180.35220	-47.97308	439.83588	-35.71487	953.49261	-305.82495	-126.11261	602.50879	-249.46696	30.36697	606.86810	-255.85580	-94.74026	457.36362	621.52826	53.58143	457.38501	617.55792	
11	0.100	-254.70682	51.29028	-142.94170	167.86519	53.37543	-143.18977	-233.21762	-58.03001	477.02020	180.30998	-48.01852	439.83493	-35.61634	953.92981	-306.38361	-126.09753	602.54248	-249.41283	30.36239	606.88818	-255.79742	-94.74001	457.33255	621.53381	53.51654	457.35126	617.61554	
12	0.110	-254.72559	51.29019	-142.92876	167.85469	53.33231	-143.26550	-233.24945	-58.04195	477.02158	180.33553	-48.01078	439.85306	-35.82005	954.50116	-307.08392	-125.98243	602.55634	-249.28580	30.36413	606.92694	-255.73773	-94.74446	457.32306	621.60278	53.55846	457.34067	617.67432	
13	0.120	-254.63547	51.20937	-142.92824	167.92386	53.32478	-143.21425	-233.28244	-58.00593	476.99402	180.39604	-48.00835	439.87268	-35.79738	954.87781	-307.69165	-125.94360	602.58667	-249.17433	30.39494	606.93451	-255.67308	-94.75172	457.27542	621.68536	53.59838	457.33527	617.73584	
14	0.130	-254.64442	51.18571	-142.91150	167.87071	53.24362	-143.23424	-233.27388	-58.01239	477.04077	180.35022	-48.01006	439.83026	-35.79135	955.35199	-308.25903	-125.88815	602.59668	-249.12367	30.40031	606.93579	-255.65103	-94.73776	457.32089	621.76648	53.56502	457.35144	617.82037	
15	0.140	-254.59592	51.15035	-142.88297	167.97627	53.31830	-143.17300	-233.22975	-57.99667	477.01782	180.42589	-47.98251	439.87314	-35.69471	955.91711	-308.62219	-125.83682	602.59949	-249.04495	30.42188	606.95294	-255.63879	-94.62762	457.37363	621.80768	53.61388	457.37839	617.86096	
16	0.150	-254.67279	51.22583	-142.91554	167.91223	53.50000	-143.13440	-233.24513	-57.95317	476.98819	180.44147	-47.93417	439.91818	-35.84222	956.56030	-309.30600	-125.92110	602.65356	-249.14806	30.43050	606.94092	-255.60905	-94.61727	457.39966	621.88092	53.66063	457.37695	617.93848	
17	0.160	-254.69344	51.26037	-142.91562	167.75414	53.45660	-143.16364	-233.21426	-58.00574	477.01614	180.35603	-47.97307	439.90210	-36.00112	957.02966	-309.81985	-125.87928	602.64990	-249.05780	30.40215	606.95612	-255.57339	-94.64491	457.38763	621.97211	53.64014	457.34741	617.99713	
18	0.170	-254.67624	51.25470	-142.93361	167.80742	53.49420	-143.13737	-233.23065	-58.01635	477.02576	180.39722	-47.99106	439.92654	-35.77297	957.60724	-310.38123	-125.80037	602.64557	-248.93475	30.43662	606.99231	-255.48859	-94.63112	457.38855	622.05316	53.63900	457.34094	618.04712	
19	0.180	-254.66928	51.19718	-142.88673	167.76518	53.43468	-143.21550	-233.28706	-58.03760	477.08658	180.36084	-47.96449	439.89890	-35.71738	957.96674	-310.73804	-125.77233	602.67139	-248.87050	30.43986	607.02618	-255.44221	-94.62772	457.34528	622.10400	53.66221	457.30383	618.13513	
20	0.190	-254.62608	51.18389	-142.87709	167.87669	53.19492	-143.27083	-233.25851	-58.03722	477.03156	180.42595	-47.97392	439.92157	-35.96764	958.47571	-311.48547	-125.70421	602.72522	-248.71736	30.49689	607.08691	-255.34390	-94.61870	457.32623	622.15472	53.71404	457.26474	618.19543	
21	0.200	-254.64148	51.24646	-142.90230	167.86664	53.27864	-143.23138	-233.22597	-58.01655	477.03659	180.34419	-48.01109	439.89844	-35.96806	959.08301	-312.17950	-125.70271	602.78638	-248.67352	30.51015	607.14624	-255.29958	-94.61739	457.31491	622.18500	53.74326	457.23566	618.28394	
22	0.210	-254.69327	51.30325	-142.94069	167.87810	53.36343	-143.20226	-233.27077	-58.02540	477.02570	180.32945	-48.03751	439.90686	-35.82018	959.49982	-312.55438	-125.64761	602.82965	-248.58080	30.54540	607.17523	-255.21834	-94.65456	457.30630	622.23608	53.77209	457.19876	618.33319	
23	0.220	-254.67929	51.26295	-142.87820	167.67078	53.41378	-143.18095	-233.21739	-58.05677	477.08163	180.36600	-48.02234	439.95132	-35.85101	959.96307	-313.12970	-125.64694	602.89941	-248.50839	30.51581	607.18384	-255.16690	-94.67941	457.28897	622.29578	53.82137	457.17862	618.42786	
24	0.230	-254.68077	51.25569	-142.88206	168.02924	53.42735	-143.10986	-233.19780	-58.06792	477.06363	180.35182	-48.02119	439.97150	-35.94800	960.17975	-313.74966	-125.70646	602.93152	-248.51434	30.60645	607.16406	-255.07874	-94.64920	457.29846	622.35944	53.89943	457.16031	618.46973	
